<svg id="Layer_1" data-name="Layer 1" xmlns="http://www.w3.org/2000/svg" viewBox="0 0 359.1 30.44"><defs><style>.cls-1{fill:none;}</style></defs><path class="cls-1" d="M204.7,286.28h-9.26v16.38h9.26c4,0,5.28-1.6,5.28-8.17S208.58,286.28,204.7,286.28Z" transform="translate(-120.45 -279.27)"/><polygon points="21.83 11.98 7.85 11.98 7.85 0.56 0 0.56 0 29.84 7.85 29.84 7.85 18.43 21.83 18.43 21.83 29.84 29.68 29.84 29.68 0.56 21.83 0.56 21.83 11.98"/><polygon points="42.98 18.02 62.09 18.02 62.09 12.38 42.98 12.38 42.98 6.89 62.17 6.89 62.17 0.56 35.13 0.56 35.13 29.84 62.25 29.84 62.25 23.51 42.98 23.51 42.98 18.02"/><path d="M204.74,279.83H187.59v29.28h17.15c8.65,0,13-2.48,13-14.62S213.39,279.83,204.74,279.83Zm0,22.83h-9.26V286.28h9.26c3.88,0,5.28,1.56,5.28,8.21S208.66,302.66,204.7,302.66Z" transform="translate(-120.45 -279.27)"/><polygon points="109.36 0.56 101.51 0.56 101.51 29.84 127.47 29.84 127.47 23.51 109.36 23.51 109.36 0.56"/><rect x="130.88" y="0.56" width="7.85" height="29.28"/><polygon points="168.01 21.31 153.47 0.56 144.18 0.56 144.18 29.84 151.47 29.84 151.47 9.81 165.73 29.84 175.26 29.84 175.26 0.56 168.01 0.56 168.01 21.31"/><polygon points="188.56 18.02 207.67 18.02 207.67 12.38 188.56 12.38 188.56 6.89 207.75 6.89 207.75 0.56 180.71 0.56 180.71 29.84 207.83 29.84 207.83 23.51 188.56 23.51 188.56 18.02"/><polygon points="247.49 11.98 233.51 11.98 233.51 0.56 225.66 0.56 225.66 29.84 233.51 29.84 233.51 18.43 247.49 18.43 247.49 29.84 255.34 29.84 255.34 0.56 247.49 0.56 247.49 11.98"/><path d="M387.77,294.49c0-6.53,1.08-8.73,7.85-8.73s7.86,2.2,7.86,8.73a15,15,0,0,1-.76,5.74l6.23,5.18c1.73-2.43,2.26-6,2.26-10.92,0-11.06-2.65-15.22-15.59-15.22S380,283.43,380,294.49s2.65,15.22,15.58,15.22c1.24,0,2.37,0,3.42-.12L390,302C388.17,300.76,387.77,298.41,387.77,294.49Z" transform="translate(-120.45 -279.27)"/><path d="M422,294.49c0-6.53,1.08-8.73,7.85-8.73s7.85,2.2,7.85,8.73a18.22,18.22,0,0,1-.52,5.1l6.34,5.28c1.45-2.4,1.91-5.8,1.91-10.38,0-11.06-2.65-15.22-15.58-15.22s-15.58,4.16-15.58,15.22,2.64,15.22,15.58,15.22a40.28,40.28,0,0,0,4.31-.2l-8-6.63C422.66,302,422,299.59,422,294.49Z" transform="translate(-120.45 -279.27)"/><polygon points="337.07 17.9 342.12 17.9 350.37 29.84 359.1 29.84 348.93 14.66 358.78 0.56 350.49 0.56 342.12 12.42 337.07 12.42 337.07 0.56 329.22 0.56 329.22 29.84 337.07 29.84 337.07 17.9"/></svg>